<svg width="10" height="19" viewBox="0 0 10 19" fill="none"
    xmlns="http://www.w3.org/2000/svg">
    <path d="M9.5 3.76953H6.5C5.9477 3.76953 5.5 4.21725 5.5 4.76953V7.76953H9.5C9.6137 7.76701 9.7216 7.81993 9.7892 7.91143C9.8568 8.00293 9.8758 8.12153 9.84 8.22953L9.1 10.4295C9.0318 10.6314 8.8431 10.7679 8.63 10.7695H5.5V18.2695C5.5 18.5456 5.2761 18.7695 5 18.7695H2.5C2.22386 18.7695 2 18.5456 2 18.2695V10.7695H0.5C0.22386 10.7695 0 10.5456 0 10.2695V8.26953C0 7.99343 0.22386 7.76953 0.5 7.76953H2V4.76953C2 2.56039 3.7909 0.769531 6 0.769531H9.5C9.7761 0.769531 10 0.993391 10 1.26953V3.26953C10 3.54567 9.7761 3.76953 9.5 3.76953Z" fill="#D9EFDE"/>
</svg>
