<svg width="18" height="19" viewBox="0 0 18 19" fill="none" xmlns="http://www.w3.org/2000/svg">
<path fill-rule="evenodd" clip-rule="evenodd" d="M2 0.769531H16C17.1046 0.769531 18 1.66496 18 2.76953V16.7695C18 17.8741 17.1046 18.7695 16 18.7695H2C0.89543 18.7695 0 17.8741 0 16.7695V2.76953C0 1.66496 0.89543 0.769531 2 0.769531ZM5 15.7695C5.27614 15.7695 5.5 15.5456 5.5 15.2695V8.26953C5.5 7.99343 5.27614 7.76953 5 7.76953H3.5C3.22386 7.76953 3 7.99343 3 8.26953V15.2695C3 15.5456 3.22386 15.7695 3.5 15.7695H5ZM4.25 6.76953C3.42157 6.76953 2.75 6.09796 2.75 5.26953C2.75 4.4411 3.42157 3.76953 4.25 3.76953C5.07843 3.76953 5.75 4.4411 5.75 5.26953C5.75 6.09796 5.07843 6.76953 4.25 6.76953ZM14.5 15.7695C14.7761 15.7695 15 15.5456 15 15.2695V10.6695C15.0325 9.08033 13.8576 7.72405 12.28 7.52953C11.177 7.42878 10.1083 7.94393 9.5 8.86953V8.26953C9.5 7.99343 9.2761 7.76953 9 7.76953H7.5C7.2239 7.76953 7 7.99343 7 8.26953V15.2695C7 15.5456 7.2239 15.7695 7.5 15.7695H9C9.2761 15.7695 9.5 15.5456 9.5 15.2695V11.5195C9.5 10.6911 10.1716 10.0195 11 10.0195C11.8284 10.0195 12.5 10.6911 12.5 11.5195V15.2695C12.5 15.5456 12.7239 15.7695 13 15.7695H14.5Z" fill="#D9EFDE"/>
</svg>
