<svg width="18" height="16" viewBox="0 0 18 16" fill="none" xmlns="http://www.w3.org/2000/svg">
<path d="M17.9728 2.48693C17.5084 3.10645 16.947 3.64686 16.3103 4.08729C16.3103 4.24912 16.3103 4.41095 16.3103 4.58178C16.3154 7.52063 15.1415 10.3386 13.0518 12.404C10.962 14.4694 8.1312 15.6094 5.19405 15.5684C3.49599 15.5741 1.81967 15.1864 0.296422 14.4356C0.214282 14.3997 0.161312 14.3185 0.161622 14.2288V14.1299C0.161622 14.0008 0.266232 13.8962 0.395272 13.8962C2.06442 13.8411 3.67402 13.2624 4.99634 12.2419C3.48553 12.2114 2.12619 11.3164 1.5006 9.94023C1.46901 9.86513 1.47884 9.77883 1.52657 9.71273C1.57429 9.64663 1.653 9.61023 1.73425 9.61663C2.19342 9.66273 2.65718 9.62003 3.1002 9.49073C1.43239 9.14453 0.179212 7.75993 -0.000137933 6.06523C-0.00650793 5.98393 0.029922 5.90523 0.096002 5.85743C0.162072 5.80973 0.248242 5.79983 0.323382 5.83153C0.770942 6.02903 1.25409 6.13303 1.74324 6.13713C0.281842 5.17799 -0.349388 3.35358 0.206552 1.69575C0.263942 1.53466 0.401812 1.41565 0.569502 1.38247C0.737182 1.34928 0.909962 1.40681 1.02432 1.53392C2.99639 3.63278 5.70604 4.88349 8.5819 5.02232C8.5083 4.72838 8.4721 4.42629 8.4741 4.12325C8.501 2.53425 9.4842 1.11874 10.9634 0.539403C12.4425 -0.039927 14.1249 0.331563 15.223 1.47997C15.9714 1.33738 16.695 1.08598 17.3707 0.733743C17.4202 0.702843 17.483 0.702843 17.5325 0.733743C17.5634 0.783263 17.5634 0.846053 17.5325 0.895573C17.2052 1.64505 16.6523 2.27365 15.9509 2.69372C16.5651 2.62249 17.1685 2.4776 17.7482 2.26217C17.797 2.22895 17.8611 2.22895 17.9099 2.26217C17.9508 2.28087 17.9814 2.31664 17.9935 2.35995C18.0056 2.40326 17.998 2.44971 17.9728 2.48693Z" fill="#D9EFDE"/>
</svg>
